<svg data-name="Layer 1" xmlns="http://www.w3.org/2000/svg" viewBox="0 0 994.835 193.431"><path d="M360.534 96.656a22.628 22.628 0 0122.658-22.745 22.31 22.31 0 0121.085 13.82l-10.675 4.552a11.371 11.371 0 100 8.75l10.675 4.547a22.302 22.302 0 01-21.085 13.821 22.625 22.625 0 01-22.658-22.745zm48.128-41.99h11.899V79.6a15.376 15.376 0 0112.073-5.69c10.323 0 16.536 6.652 16.536 17.935v26.684h-12.16V93.51c0-5.953-2.713-9.363-8.05-9.363-4.55 0-8.312 3.15-8.312 10.5v23.882h-11.986zm45.329 41.99c0-15.486 11.373-22.745 21.26-22.745a17.53 17.53 0 0113.035 5.16v-4.283h11.983v43.74h-11.983v-4.9a17.039 17.039 0 01-13.212 5.773c-9.271 0-21.083-7.344-21.083-22.745zm34.644-.085c0-6.476-4.724-11.727-11.198-11.727a11.77 11.77 0 000 23.539c6.474 0 11.198-5.34 11.198-11.812zm17.775-41.905h11.986v63.863H506.41zm18.55 0h11.986v63.863H524.96zm16.8 41.99a22.702 22.702 0 0122.745-22.745c13.387 0 22.57 10.061 22.57 22.66v4.373h-33.768c1.401 4.81 5.337 7.962 11.637 7.962a11.583 11.583 0 0010.76-6.826l9.534 5.69c-3.761 6.82-10.672 11.631-20.381 11.631-13.65 0-23.097-10.146-23.097-22.745zm12.073-5.335h21.172c-1.575-4.552-5.337-6.91-10.413-6.91a11.432 11.432 0 00-10.759 6.91zm38.157-16.533h11.899v4.896a15.068 15.068 0 0112.073-5.773c10.323 0 16.535 6.65 16.535 17.934v26.684h-12.16V93.42c0-5.863-2.712-9.273-8.05-9.273-4.55 0-8.311 3.15-8.311 10.5v23.882H591.99zm45.329 21.868c0-15.486 11.373-22.745 21.26-22.745a17.146 17.146 0 0113.035 5.599v-4.722h11.983v42.514c0 12.335-7.785 22.312-22.57 22.312-11.111 0-19.246-5.774-22.746-12.6l10.585-5.948a12.843 12.843 0 0012.16 7.434 10.437 10.437 0 0010.588-10.76v-4.113a17.04 17.04 0 01-13.213 5.774c-9.27 0-21.082-7.344-21.082-22.745zm34.644-.085c0-6.476-4.724-11.727-11.198-11.727a11.77 11.77 0 000 23.539c6.474 0 11.198-5.34 11.198-11.812zm16.461.085A22.702 22.702 0 01711.17 73.91c13.387 0 22.57 10.061 22.57 22.66v4.373h-33.768c1.401 4.81 5.337 7.962 11.637 7.962a11.583 11.583 0 0010.76-6.826l9.535 5.69c-3.762 6.82-10.672 11.631-20.382 11.631-13.649 0-23.097-10.146-23.097-22.745zm12.073-5.335h21.172c-1.575-4.552-5.337-6.91-10.413-6.91a11.432 11.432 0 00-10.759 6.91zm38.157-16.533h11.899v7.17c2.186-4.547 6.125-7.17 12.073-7.17h4.811V86.42h-7.61c-6.387 0-9.187 3.326-9.187 11.462v20.647h-11.986zm34.216 0h11.898v4.637a14.48 14.48 0 0111.635-5.514c6.212 0 10.849 2.448 13.474 6.91a16.614 16.614 0 0113.648-6.91c11.109 0 16.62 6.65 16.62 17.934v26.684h-12.16V93.42c0-5.863-2.273-9.273-7.61-9.273-4.55 0-7.873 3.15-7.873 10.5v23.882h-12.16V93.42c0-5.863-2.277-9.273-7.611-9.273-4.55 0-7.875 3.15-7.875 10.5v23.882H772.87zm72.108 21.868a22.658 22.658 0 1122.658 22.745 22.628 22.628 0 01-22.658-22.745zm33.681 0a11.222 11.222 0 00-11.023-11.373 11.381 11.381 0 000 22.745 11.222 11.222 0 0011.023-11.372zm15.587 0c0-15.486 11.372-22.745 21.26-22.745a17.53 17.53 0 0113.035 5.16V54.666h11.983v63.863H928.54v-4.902a17.04 17.04 0 01-13.213 5.774c-9.27 0-21.082-7.344-21.082-22.745zm34.644-.085c0-6.476-4.724-11.727-11.199-11.727a11.77 11.77 0 000 23.539c6.474 0 11.199-5.34 11.199-11.812zm16.46.085a22.702 22.702 0 0122.746-22.745c13.387 0 22.57 10.061 22.57 22.66v4.373h-33.768c1.401 4.81 5.337 7.962 11.637 7.962a11.583 11.583 0 0010.76-6.826l9.534 5.69c-3.761 6.82-10.672 11.631-20.381 11.631-13.649 0-23.097-10.146-23.097-22.745zm12.074-5.335h21.172c-1.575-4.552-5.337-6.91-10.413-6.91a11.432 11.432 0 00-10.759 6.91z" fill="#fff"/><path d="M237.71 21.534q-8.894-17.788-26.683-17.788t-26.683 17.788l-75.602 142.31h40.024c22.236 0 26.683-8.894 35.578-26.683l26.683-53.366 13.341 26.683c13.342 26.683 22.236 26.683 35.578 26.683h40.025z" fill="#f36f21"/><path d="M122.083 74.9Q113.19 57.113 95.4 57.113T68.717 74.9L6.457 190.527H46.48c22.236 0 26.683-8.894 35.577-26.683L95.4 137.161l13.341 26.683 30.461-57.338z" fill="#f15a29"/></svg>