<svg id="Layer_1" xmlns="http://www.w3.org/2000/svg" viewBox="0 0 297.6 297.6"><style>.st0{fill:#d43b3b}.st1{fill-rule:evenodd;clip-rule:evenodd;fill:#fff}</style><path id="bg" class="st0" d="M0 0h297.6v297.6H0z"/><path class="st1" d="M89.6 167.5c1.9 1.2 3.1 2.3 4.9 3.8l14.7 13.6c3.1 2.9 10.9 10.9 13.9 14.4 2.1 2.4 3 2.6 4.5 5-.6.2-7.4 1.8-11.5 3.1-8.3 2.9-15.9 7.4-23.2 5-1.1-.3-6-5.1-8.3-6.7-1.3-.9-2.6-1.8-4.1-2.9-4.4-3.1-5.7-1 .2-14.6 1.6-3.5 2.8-6.8 4.3-10.3 1.4-2.9 3.1-7.9 4.6-10.4zM195.4 85c3.1 1.1 10.4 5.3 12.1 7.5 1.5 1.9 1.1 2.1.5 4.8l-3 23.4c-4.1.2-3-.3-5.5-2.1-4.3-2.9-19.1-13.8-23.8-17.6l-9.1-7.3c.7-.7-.2-.3 1.3-.7l13.5-3.1c7.1-1.7 8.2-2.2 14-4.9zM74.5 89.7c3.1-1.7 4.7-.4 10-4.2 1.4-1 4.6-.9 6.6-.7 2 .2 6.7 4.1 8.8 5.4 1.2.7 6.8 5 7.7 6.4l2.7 4.5c3.8.2 3.1 0 7.9 3.5l45.6 30.2c9.8 6.9 21.3 13.8 31.2 20.6l28.1 18.4c-.8 1.7-1.7 7.8-2.3 10.2-2.5 11.1-5.5 15.8-10.5 26.4-7.1.2-12.8.2-19.7.1-2.2 0-1.7.4-3-.7-4-4-11.5-12.6-15.6-16.7-1.4-1.4-2.7-2.6-4.1-4.2-11.4-12.1-6-8.5-8.3-11.6l-22.9-21.7c-5.3-5.1-10-10.6-15.4-16.4-1.4-1.5-2.1-2.9-3.5-4.2l-.4-.3c-.4-.4-.2-.2-.6-.7l-6.7-7.6c-1.2-1.1-1.1-1.1-1.9-2.1l-6-6.2c-1.3-1.4-2.3-2.8-3.6-4.3l-5.7-6.1c-.8-.8-1.5-1.2-2.3-2-2.7-2.8-5-5.5-7.8-8.4-2.3-2-7.6-6.4-8.3-7.6zm27.6-33.9l-47.1 1c-2.6 9.4 0 4.6 0 14.4V89c-.4 5.1-1.7 7.8-1.7 14.6 0 2.3-.5 7.6.6 9.4 2 3.2 1.9 5.9 2.7 10.5.7 4.1 1.6 3.6-.3 6.8l-.8 7.8 4 4v6.9c-2.4 2.2.2.7-4.8 4.3L55 174l5 3.6-1.1 17.7c-5.3 3.8-4.1 8.3-4 13l.7 17.7-1.2 9.1c11.8 3 9.2 2.1 22.7 2.1 11.9 0 10.4.1 22.1-1.3l.3 2c1.8-.1 3.7-.2 5.5-.4 5-.5 3-1.1 4.7-1.7 1.2-.4 14.7 2.6 16.8 3.1 1.2-1.3.6-.8 2.3-1.9.9 1.9 4.8 6.4 6.4 8.3l4.9-4.5 8.5 3.3 2.5-2.1c1 1.2 1.6 2.6 3.3 2.8 2.6.3 3-3.9 8.5-4l32.4-1.1 1.1-1.1 1.7-1.3c2.1 1.3 3.1 2.5 5.9 2.3 8.9-.6 4.2 2.1 15.8 1.6 2-.1 1.5-.6 3.2-1.2l3.7-.6c-.8-2.1-1.3-1.9-3-3.5l20.5 4.1c-.2-24.1-.2-53.5.1-78.2l-5.5.4c.2-1.6 2.6-1 2.8-4.2.2-4 .2-18.1-.4-21-.3-1.5-4.2-5.9-5.2-7.3 1.2-3.4 1.3-3.1 3.6-5.9-.2-1.8-.6-2.3-1.4-4.4l6-2c.1-3.5.5-17.3.2-21.7L242 72.1l1.8-5.9.1-6.1c-5.2-3-4.5-3.3-8.1-3.3-3.2 0-7.6-.2-10.6-.8-4-.9-2.9-1.6-7.3 2.9l-2-4.3c-6.2-.5-26.2-2.2-30.9-2.2-6 0-5.2.5-7.3 7.3l-8.7.9-1.2-3.8-7.9-.1.8-.9c1.6-1.5 1-.9 2.2-3.5h-31.7c-1.1 1.9-3 3.4-5.2 4.1-3.1 1.1-1.6-.7-3.6 1.2-1.5 1.3-1.7 1.2-4.1 1.2-3.1-.1-6.4-.2-9.5-.3-1.4-.1-3.1.1-4.4-.2-1.8-.6-1.2-1.1-2.3-2.5z"/></svg>