<svg id="Layer_1" xmlns="http://www.w3.org/2000/svg" viewBox="0 0 297.6000061 297.6000061"><style>.st0{fill:#2f318f}.st1{fill:#d0a94a}</style><path class="st0" d="M0 0h297.6v297.6H0z"/><path class="st1" d="M84 40.8h48.6v189a5.4 5.4 0 0 0 5.4 5.4h101.872l-18.003 21.6H84l9.724-12.962A5.4 5.4 0 0 0 94.8 240.6V57a5.4 5.4 0 0 0-1.076-3.238L84 40.8zm64.8 21.6c53.744 0 97.2 43.456 97.2 97.2 0 24.948-9.428 47.594-24.848 64.8H205.89c17.957-15.84 29.31-39.009 29.31-64.8 0-47.652-38.748-86.4-86.4-86.4-1.812 0-3.613.07-5.4.18V62.684c1.799-.1 3.574-.285 5.4-.285zM84 87.196v15.367c-13.407 15.219-21.6 35.183-21.6 57.037s8.194 41.814 21.6 57.038v15.398c-19.883-17.793-32.4-43.618-32.4-72.436 0-28.813 12.527-54.609 32.4-72.404z"/></svg>