<?xml version="1.0" encoding="utf-8"?>
<!-- Generator: Adobe Illustrator 25.3.1, SVG Export Plug-In . SVG Version: 6.00 Build 0)  -->
<svg version="1.1" id="Layer_1" xmlns="http://www.w3.org/2000/svg" xmlns:xlink="http://www.w3.org/1999/xlink" x="0px" y="0px"
	 viewBox="0 0 600 340" style="enable-background:new 0 0 600 340;" xml:space="preserve">
<style type="text/css">
	.st0{fill:#F37024;}
	.st1{fill:#F15B2B;}
</style>
<g>
	<path class="st0" d="M371.0968933,106.3871002c-4.9892578-9.9785156-12.4731445-14.9677658-22.4516602-14.9677658
		c-9.9784851,0-17.4623718,4.9892578-22.4516296,14.9677658l-63.6129761,119.7420807h33.6774597
		c18.7096863,0,22.4516296-7.4838715,29.9355164-22.4516296l22.4516296-44.9032898l11.2258301,22.4516449
		c11.2257996,22.4516296,18.7096863,22.4516296,29.9355164,22.4516296h33.6774597L371.0968933,106.3871002z"/>
	<path class="st1" d="M273.8064575,151.2904205c-4.9891663-9.9786224-12.4730225-14.9678802-22.4515381-14.9677887
		c-9.9786224,0-17.4625702,4.9892578-22.451828,14.9677887l-52.387146,97.2902374h33.677475
		c18.709671,0,22.4515381-7.4837494,29.9355774-22.4515533l11.2259216-22.4515533l11.225647,22.4515533l25.6303711-48.2457123
		L273.8064575,151.2904205z"/>
</g>
</svg>
