<svg width="17" height="20" viewBox="0 0 17 20" fill="none" xmlns="http://www.w3.org/2000/svg">
<g clip-path="url(#clip0_622_110)">
<path d="M8.49953 0.015625L0.03125 2.83839V11.3067C0.03125 15.9841 3.82213 19.775 8.49953 19.775C13.1769 19.775 16.9678 15.9841 16.9678 11.3067V2.83839L8.49953 0.015625ZM15.38 11.3067C15.38 15.1064 12.2992 18.1871 8.49953 18.1871C4.69983 18.1871 1.61905 15.1064 1.61905 11.3067V4.02924L8.49953 1.60343L15.38 4.02924V11.3067Z" fill="#AEB2C3"/>
<path d="M5.55396 9.08185C5.48037 9.00793 5.39291 8.94927 5.2966 8.90925C5.20028 8.86922 5.09701 8.84862 4.99271 8.84862C4.88841 8.84862 4.78514 8.86922 4.68882 8.90925C4.59251 8.94927 4.50505 9.00793 4.43147 9.08185C4.35755 9.15543 4.29889 9.24289 4.25887 9.3392C4.21885 9.43552 4.19824 9.53879 4.19824 9.64309C4.19824 9.74739 4.21885 9.85066 4.25887 9.94698C4.29889 10.0433 4.35755 10.1308 4.43147 10.2043L7.2851 13.058L7.33141 13.1043C7.40102 13.174 7.48369 13.2293 7.57469 13.2671C7.6657 13.3048 7.76326 13.3243 7.86178 13.3243C7.96031 13.3243 8.05787 13.3048 8.14887 13.2671C8.23988 13.2293 8.32255 13.174 8.39215 13.1043L13.321 8.17547C13.3907 8.10587 13.446 8.0232 13.4838 7.93219C13.5215 7.84119 13.5409 7.74363 13.5409 7.6451C13.5409 7.54658 13.5215 7.44902 13.4838 7.35801C13.446 7.26701 13.3907 7.18434 13.321 7.11473L13.2592 7.05299C13.1896 6.98325 13.1069 6.92793 13.0159 6.89018C12.9249 6.85244 12.8274 6.83301 12.7288 6.83301C12.6303 6.83301 12.5328 6.85244 12.4418 6.89018C12.3507 6.92793 12.2681 6.98325 12.1985 7.05299L7.86068 11.3886L5.55396 9.08185Z" fill="#AEB2C3"/>
</g>
<defs>
<clipPath id="clip0_622_110">
<rect width="17" height="19.791" fill="white"/>
</clipPath>
</defs>
</svg>
