<svg width="17" height="22" viewBox="0 0 17 22" fill="none" xmlns="http://www.w3.org/2000/svg">
<path d="M14.875 21.2497H2.125C1.56141 21.2497 1.02091 21.0258 0.622398 20.6273C0.223883 20.2288 0 19.6883 0 19.1247V11.333C0 10.7694 0.223883 10.2289 0.622398 9.83041C1.02091 9.43189 1.56141 9.20801 2.125 9.20801H14.875C15.4386 9.20801 15.9791 9.43189 16.3776 9.83041C16.7761 10.2289 17 10.7694 17 11.333V19.1247C17 19.6883 16.7761 20.2288 16.3776 20.6273C15.9791 21.0258 15.4386 21.2497 14.875 21.2497V21.2497ZM2.125 10.6247C1.93714 10.6247 1.75697 10.6993 1.62413 10.8321C1.49129 10.965 1.41667 11.1451 1.41667 11.333V19.1247C1.41667 19.3125 1.49129 19.4927 1.62413 19.6255C1.75697 19.7584 1.93714 19.833 2.125 19.833H14.875C15.0629 19.833 15.243 19.7584 15.3759 19.6255C15.5087 19.4927 15.5833 19.3125 15.5833 19.1247V11.333C15.5833 11.1451 15.5087 10.965 15.3759 10.8321C15.243 10.6993 15.0629 10.6247 14.875 10.6247H2.125Z" fill="#AEB2C3"/>
<path d="M2.83333 10.625C2.64547 10.625 2.4653 10.5504 2.33247 10.4175C2.19963 10.2847 2.125 10.1045 2.125 9.91667V5.66667C2.125 4.16377 2.72202 2.72243 3.78473 1.65973C4.84743 0.597022 6.28877 0 7.79167 0H9.20833C10.7112 0 12.1526 0.597022 13.2153 1.65973C14.278 2.72243 14.875 4.16377 14.875 5.66667C14.875 5.85453 14.8004 6.0347 14.6675 6.16753C14.5347 6.30037 14.3545 6.375 14.1667 6.375C13.9788 6.375 13.7986 6.30037 13.6658 6.16753C13.533 6.0347 13.4583 5.85453 13.4583 5.66667C13.4583 4.5395 13.0106 3.45849 12.2135 2.66146C11.4165 1.86443 10.3355 1.41667 9.20833 1.41667H7.79167C6.6645 1.41667 5.58349 1.86443 4.78646 2.66146C3.98943 3.45849 3.54167 4.5395 3.54167 5.66667V9.91667C3.54167 10.1045 3.46704 10.2847 3.3342 10.4175C3.20136 10.5504 3.02119 10.625 2.83333 10.625V10.625Z" fill="#AEB2C3"/>
</svg>
